<svg xmlns="http://www.w3.org/2000/svg" viewBox="0 0 512 512">
  <defs>
    <style>.cls-1{fill:#3182f6;}.cls-2{fill:#fff;}</style>
  </defs>
  <circle class="cls-1" cx="256" cy="256" r="256"/>
  <path class="cls-2" d="M184.5,138.8c0-26.3,16-43.2,16-43.2s16,16.9,16,43.2v64.5c0,17.7-14.3,32-32,32s-32-14.3-32-32V138.8z"/>
  <path class="cls-2" d="M331.5,138.8c0-26.3-16-43.2-16-43.2s-16,16.9-16,43.2v64.5c0,17.7,14.3,32,32,32s32-14.3,32-32V138.8z"/>
  <path class="cls-2" d="M256,120c0,0-15-15-15-40h30C271,105,256,120,256,120z"/>
  <rect class="cls-2" x="241" y="240" width="30" height="180" rx="15" ry="15"/>
  <path class="cls-2" d="M150,140v50c0,50,30,90,75,100v110c0,16.6,13.4,30,30,30s30-13.4,30-30V290c45-10,75-50,75-100v-50c0-15-10-25-25-25s-25,10-25,25v50c0,20-10,35-25,35s-25-15-25-35v-50c0-15-10-25-25-25s-25,10-25,25v50c0,20-10,35-25,35s-25-15-25-35v-50c0-15-10-25-25-25S150,125,150,140z" style="display:none;"/>
  <!-- New Simple Fork and Spoon Design -->
  <path class="cls-2" d="M200,120v90c0,25,15,45,40,49v131c0,11,9,20,20,20s20-9,20-20V259c25-4,40-24,40-49v-90c0-11-9-20-20-20s-20,9-20,20v80c0,5-4,9-9,9h-2c-5,0-9-4-9-9v-80c0-11-9-20-20-20s-20,9-20,20v80c0,5-4,9-9,9h-2c-5,0-9-4-9-9v-80c0-11-9-20-20-20S200,109,200,120z"/>
</svg>